<svg xmlns="http://www.w3.org/2000/svg" width="43.105" height="43.105" viewBox="0 0 43.105 43.105">
  <path id="iconmonstr-globe-6" d="M21.553,0A21.553,21.553,0,1,0,43.105,21.553,21.554,21.554,0,0,0,21.553,0ZM38.735,16.34a1.082,1.082,0,0,0-.37-.248c-.463-.181-2.425,1.083-2.721.46-.194-.415-.587.266-1.038.014-.217-.12-.824-.934-1.1-.835-.56.2.86,1.749,1.246,1.952.365-.277,1.545-.842,1.8-.07.487,1.458-1.338,3.057-2.27,3.9-1.392,1.261-1.132-.815-2.082-1.545-.5-.383-.492-1.2-1-1.48a6.219,6.219,0,0,1-1.246-1.475l-.031.3c-.171.129-.533-.485-.573-.584,0,.535.871,1.387,1.16,1.816a15.458,15.458,0,0,0,1.358,2.4c.321.323,1.555,1.658,1.877,1.631l1.654-.785c1.166.277-2.75,5.814-3.122,6.5-.307.577.25,2,.2,2.676-.052.785-.672,1.04-1.257,1.467-.629.458-.481,1.351-1.009,1.678-.936.577-1.611,2.453-2.944,2.444-.393,0-2.067.654-2.286.013a10.7,10.7,0,0,0-.639-1.275c-.235-.449-.027-.916-.314-1.313-.2-.277-.86-.9-.921-1.228,0-.282.212-1.135.508-1.284.415-.212.079-.83.029-1.191a2.415,2.415,0,0,0-.961-1.543c-.706-.542-.339-.973-.176-1.749,0-.37-.226-.855-.722-.711-1.024.3-.711-.8-1.458-.749a6.885,6.885,0,0,0-1.475.53c-.627.187-1.27-.149-1.891-.226-2.552-.321-3.386-3.24-2.719-5.345.066-.345-.207-.982-.086-1.25a6.609,6.609,0,0,1,1.379-1.834c.287-.273.656-.2.993-.415.521-.327.528-1,1.038-1.417a5.122,5.122,0,0,1,2.662-.7c.5-.066,2.425-.481,2.726-.108,0,.07.347,1.1-.034,1.038.787.041,1.906,1.358,2.651,1.051.383-.16.242-1.336,1.029-.767a4.511,4.511,0,0,0,3.046.126c.273-.225.424-1.686.1-1.852.21.208-1.11.225-1.232.178-.219-.079-.422.207-.772.045.21.1-1.169-.643-.4-1.211-.325.237-.627-.066-.977.2-.242.2.111.325-.233.5-.548.278-.961-.952-1.166-1.09s-1.839-1.281-1.4-.535l1.431,1.424c-.072.047-.375-.519-.375-.106.1-.244.036,1.051-.189.629-.1-.162.163-.251.011-.487,0-.153-.413-.3-.494-.41a4.934,4.934,0,0,0-1.157-1.051,9.359,9.359,0,0,0-1.494.2,3.26,3.26,0,0,0-.325.564,3.609,3.609,0,0,0-.76.388l-.286.639c-.122.11-1.387.528-1.394.544.054-.136-.884-.309-.821-.582a5.529,5.529,0,0,0,.3-1.575c-.086-.357,1.949.515,2.08-.427.052-.408.084-.884-.568-.954a4.83,4.83,0,0,0,1.449-.654,2.322,2.322,0,0,1,1.313-.8c.514,0,.4-.749.639-1.117.239.1-.128.682.158.92-.018-.187.808.1.887.059.189-.1,1.241-.041,1.079-.537-.181-.5.093-.354.329-.458-.036.014.445-.823.652-.819-.187-.16-.715.2-.927.185-.553-.043-.318-.943-.11-1.207.162-.208-.442-.463-.449-.065-.011.6-.564,1.137-.436,1.931.2,1.2-1.334-.289-1.466-.207-.508.309-.925-.388-.661-.806s.916-.406,1.184-.862a3.56,3.56,0,0,1,.7-.941c.972-.815,1.237-.163,2.207-.075.945.086.32.225.189.587-.126.345.519.469.742.18a4.647,4.647,0,0,0,.541-.9c.126-.314,1.038-.359.947-.656A18.048,18.048,0,0,1,38.735,16.34ZM18.776,9.553,18.9,9.4l.131-.034c.075-.061.154-.212.271-.187.077.016.262.171.2.266s-.119-.088-.145.181c-.032.3-.338.3-.562.4-.156.066-.314-.032-.162-.187l.158-.194Zm.794.44c.083-.081.248-.014.271-.169a.7.7,0,0,0-.014-.6c-.04-.075.208-.147.092-.246l-.2.057s.278-1.2.654-.657l-.16.185A2.786,2.786,0,0,1,20.6,9.8c.228.119.582.14.176.345.21-.036-1.11.564-1.284.32-.129-.149.569-.25.551-.311-.007-.02-.569-.036-.476-.156Zm2.568-6.371-.639.586c-.647.535-2.3,1.586-3.22,1.266-.941-.323-2.958,1.2-3.28,1.209-.12.005,0-1.151.647-1.237-.253.038,1.783-1.033,2.128-1.446a17.925,17.925,0,0,1,3.779-.408ZM13,5.76c.126.147.5.165-.047.517-.329.2-.677,1.453-.984,1.453-.916.4-.973-.788-1.992.742-.14.207-.709.284-1.157.424A18.113,18.113,0,0,1,13,5.76ZM3.592,21.553a17.738,17.738,0,0,1,.25-2.849l.524.332c.2.242.2,1.291.3,1.636A9.23,9.23,0,0,0,6.013,22.81a4.059,4.059,0,0,1,.6,2.15c.2-.321,1.942,1.48,2.261,1.855.751.884,1.329,1.954.11,2.827-.393.284.6,2.048.088,2.482l-.656.169a.929.929,0,0,0-.3,1.133A17.86,17.86,0,0,1,3.592,21.553ZM29.36,11.094c.149-.018-.192.3-.192.3.059.46.4.711,1.044.947.785.282.068.817-.383.691-.25-.07-1.534-.458-1.579.045,0,.3-1.22,0-1.029-.314.131-.214.09-.7.334-1.009.347-.458.683-.208.693.057,0,.708.715-.67,1.112-.717Z" fill="#0e9213"/>
</svg>
