<svg id="Component_1_1" data-name="Component 1 – 1" xmlns="http://www.w3.org/2000/svg" width="735.951" height="506.34" viewBox="0 0 735.951 506.34">
  <g id="T_50">
    <g id="Layer_3" transform="translate(13.158 25.664)">
      <g id="Tree1" transform="translate(160.572 99.5)">
        <g id="Group_6" data-name="Group 6">
          <g id="Group_1" data-name="Group 1">
            <path id="Path_1" data-name="Path 1" d="M429.25,269.584A11.959,11.959,0,0,0,424.3,266.1a8.779,8.779,0,0,0-9.036-12.193,51.976,51.976,0,0,0-40.442-19.323h-.762a23.623,23.623,0,0,0-33.094,11.594,17.672,17.672,0,0,0-4.191-.49,18.093,18.093,0,0,0-13.009,30.645c-.054.163-.054.381-.109.544a9.032,9.032,0,0,0-.6,15.785A52.047,52.047,0,0,0,426.8,287.547c.381-.272.708-.544,1.089-.817A12.171,12.171,0,0,0,429.25,269.584Z" transform="translate(-318.7 -231.7)" fill="#47976a"/>
          </g>
          <g id="Group_5" data-name="Group 5" transform="translate(34.741 40.987)">
            <g id="Group_2" data-name="Group 2" transform="translate(18.928)">
              <line id="Line_1" data-name="Line 1" y1="106.522" transform="translate(2.449 2.449)" fill="#47976a"/>
              <path id="Path_2" data-name="Path 2" d="M419.749,418.421a2.439,2.439,0,0,1-2.449-2.449V309.449a2.449,2.449,0,0,1,4.9,0V415.971A2.511,2.511,0,0,1,419.749,418.421Z" transform="translate(-417.3 -307)" fill="#47976a"/>
            </g>
            <g id="Group_3" data-name="Group 3" transform="translate(18.92 7.993)">
              <line id="Line_2" data-name="Line 2" x1="14.315" y2="13.445" transform="translate(2.458 2.403)" fill="#47976a"/>
              <path id="Path_3" data-name="Path 3" d="M419.743,339.982a2.561,2.561,0,0,1-1.8-.762,2.416,2.416,0,0,1,.109-3.429l14.315-13.445a2.426,2.426,0,0,1,3.32,3.538l-14.315,13.39A2.148,2.148,0,0,1,419.743,339.982Z" transform="translate(-417.285 -321.685)" fill="#47976a"/>
            </g>
            <g id="Group_4" data-name="Group 4" transform="translate(0 21.895)">
              <line id="Line_3" data-name="Line 3" x2="18.997" y2="19.051" transform="translate(2.381 2.436)" fill="#47976a"/>
              <path id="Path_4" data-name="Path 4" d="M403.9,371.161a2.383,2.383,0,0,1-1.742-.708l-18.942-19.105a2.425,2.425,0,1,1,3.429-3.429l18.942,19.105a2.465,2.465,0,0,1,0,3.429A2.35,2.35,0,0,1,403.9,371.161Z" transform="translate(-382.525 -347.225)" fill="#47976a"/>
            </g>
          </g>
        </g>
      </g>
      <g id="Tree2" transform="translate(238.736 1.143)">
        <g id="Group_13" data-name="Group 13">
          <g id="Group_8" data-name="Group 8" transform="translate(0 68.311)">
            <path id="Path_5" data-name="Path 5" d="M572.85,214.384A11.96,11.96,0,0,0,567.9,210.9a8.779,8.779,0,0,0-9.036-12.193,51.976,51.976,0,0,0-40.442-19.323h-.762a23.623,23.623,0,0,0-33.094,11.594,17.671,17.671,0,0,0-4.191-.49,18.093,18.093,0,0,0-13.009,30.645c-.055.163-.055.381-.109.544a9.032,9.032,0,0,0-.6,15.785A52.047,52.047,0,0,0,570.4,232.347c.381-.272.708-.544,1.089-.816A12.168,12.168,0,0,0,572.85,214.384Z" transform="translate(-462.3 -176.5)" fill="#47976a"/>
          </g>
          <g id="Group_9" data-name="Group 9" transform="translate(287.18)">
            <path id="Path_6" data-name="Path 6" d="M1171.047,113.052a20.171,20.171,0,0,0-8.11-5.661,14.411,14.411,0,0,0-14.805-20.031,85.167,85.167,0,0,0-66.3-31.625h-1.252A38.24,38.24,0,0,0,1062.021,51a38.77,38.77,0,0,0-35.707,23.732,28.181,28.181,0,0,0-6.859-.816,29.563,29.563,0,0,0-21.228,50.131c-.054.327-.109.6-.163.925a14.773,14.773,0,0,0-.925,25.8,85.278,85.278,0,0,0,169.989-8.382,21.3,21.3,0,0,0,1.742-1.361A19.837,19.837,0,0,0,1171.047,113.052Z" transform="translate(-989.9 -51)" fill="#5ebf86"/>
          </g>
          <g id="Group_12" data-name="Group 12" transform="translate(34.741 133.683)">
            <g id="Group_10" data-name="Group 10" transform="translate(18.928)">
              <line id="Line_4" data-name="Line 4" y1="106.522" transform="translate(2.449 2.449)" fill="#47976a"/>
              <path id="Path_7" data-name="Path 7" d="M563.35,408.021a2.439,2.439,0,0,1-2.449-2.449V299.049a2.449,2.449,0,1,1,4.9,0V405.571A2.439,2.439,0,0,1,563.35,408.021Z" transform="translate(-560.9 -296.6)" fill="#47976a"/>
            </g>
            <g id="Group_11" data-name="Group 11" transform="translate(0 62.718)">
              <path id="Path_8" data-name="Path 8" d="M547.5,435.761a2.382,2.382,0,0,1-1.742-.708l-18.942-19.105a2.425,2.425,0,1,1,3.429-3.429l18.942,19.105a2.465,2.465,0,0,1,0,3.429A2.263,2.263,0,0,1,547.5,435.761Z" transform="translate(-526.125 -411.825)" fill="#47976a"/>
            </g>
          </g>
        </g>
      </g>
      <g id="Tree3" transform="translate(452.215 114.142)">
        <g id="Group_19" data-name="Group 19">
          <g id="Group_15" data-name="Group 15">
            <path id="Path_9" data-name="Path 9" d="M965.05,296.484A11.96,11.96,0,0,0,960.1,293a8.779,8.779,0,0,0-9.036-12.193,51.976,51.976,0,0,0-40.442-19.323h-.762a23.623,23.623,0,0,0-33.094,11.594,17.672,17.672,0,0,0-4.191-.49,18.093,18.093,0,0,0-13.009,30.645c-.054.163-.054.381-.109.544a9.032,9.032,0,0,0-.6,15.785A52.046,52.046,0,0,0,962.6,314.447c.381-.272.708-.544,1.089-.817A12.167,12.167,0,0,0,965.05,296.484Z" transform="translate(-854.5 -258.6)" fill="#47976a"/>
          </g>
          <g id="Group_18" data-name="Group 18" transform="translate(34.686 65.372)">
            <g id="Group_16" data-name="Group 16" transform="translate(18.928)">
              <line id="Line_5" data-name="Line 5" y1="106.522" transform="translate(2.449 2.449)" fill="#47976a"/>
              <path id="Path_10" data-name="Path 10" d="M955.45,490.121a2.439,2.439,0,0,1-2.45-2.449V381.149a2.449,2.449,0,1,1,4.9,0V487.672A2.439,2.439,0,0,1,955.45,490.121Z" transform="translate(-953 -378.7)" fill="#47976a"/>
            </g>
            <g id="Group_17" data-name="Group 17" transform="translate(0 62.773)">
              <path id="Path_11" data-name="Path 11" d="M939.6,517.961a2.383,2.383,0,0,1-1.742-.708l-18.942-19.105a2.425,2.425,0,0,1,3.429-3.429l18.942,19.105a2.464,2.464,0,0,1,0,3.429A2.388,2.388,0,0,1,939.6,517.961Z" transform="translate(-918.225 -494.025)" fill="#47976a"/>
            </g>
          </g>
        </g>
      </g>
      <g id="Tree4" transform="translate(34.618 55.302)">
        <path id="Path_12" data-name="Path 12" d="M230.4,199.543a15.633,15.633,0,0,0-6.423-4.463,11.536,11.536,0,0,0-1.8-11.92,11.352,11.352,0,0,0-9.906-3.919,67.279,67.279,0,0,0-52.363-24.984h-.98a30.6,30.6,0,0,0-42.892,14.969,22.134,22.134,0,0,0-5.389-.653,23.327,23.327,0,0,0-16.765,39.572c-.054.218-.109.49-.163.708a11.661,11.661,0,0,0-.762,20.357,67.363,67.363,0,0,0,134.282-6.586,12.319,12.319,0,0,0,1.415-1.089A15.546,15.546,0,0,0,230.4,199.543Z" transform="translate(-87.3 -150.5)" fill="#5ebf86"/>
        <g id="Group_21" data-name="Group 21" transform="translate(48.117 71.142)">
          <line id="Line_6" data-name="Line 6" y1="137.874" transform="translate(24.549)" fill="none" stroke="#844b2a" stroke-linecap="round" stroke-miterlimit="10" stroke-width="20"/>
          <line id="Line_7" data-name="Line 7" x1="18.507" y2="17.418" transform="translate(24.549 10.288)" fill="none" stroke="#844b2a" stroke-linecap="round" stroke-miterlimit="10" stroke-width="20"/>
          <line id="Line_8" data-name="Line 8" x2="24.549" y2="24.657" transform="translate(0 28.359)" fill="none" stroke="#844b2a" stroke-linecap="round" stroke-miterlimit="10" stroke-width="20"/>
        </g>
      </g>
      <path id="Bush1" d="M54.689,480.463a47.959,47.959,0,0,0,21.283,39.9h53.56a48.055,48.055,0,0,0-26.78-87.961,47.5,47.5,0,0,0-21.01,4.844,21.484,21.484,0,0,0-26.073,33.747A45.081,45.081,0,0,0,54.689,480.463Z" transform="translate(-35.366 -223.656)" fill="#47976a"/>
      <path id="Path_14" data-name="Path 14" d="M263.79,489.56c-.054,1.034-.109,2.068-.109,3.157,0,12.3,2.885,47.736,47.246,46.43s49.8-14.424,49.8-14.424a11.485,11.485,0,0,0,3.538-6.967,21.875,21.875,0,0,0-2.994-43.545,24.651,24.651,0,0,0-4.953.544,48,48,0,0,0-78.653-15.948,17.333,17.333,0,0,0-6.1-1.143A16.888,16.888,0,0,0,254.7,474.537,16.7,16.7,0,0,0,263.79,489.56Z" transform="translate(-128.963 -229.215)" fill="#47976a"/>
      <path id="Path_15" data-name="Path 15" d="M716.417,539.355c.109.653.272,1.306.435,1.905,1.905,7.457,9.09,28.522,35.816,20.956S780.7,545.833,780.7,545.833a7.231,7.231,0,0,0,1.089-4.79,13.71,13.71,0,0,0-8.437-26.018,17.177,17.177,0,0,0-2.939,1.089,30.119,30.119,0,0,0-50.24,2.341,10.363,10.363,0,0,0-3.865.218,10.592,10.592,0,0,0-7.675,12.846A10.321,10.321,0,0,0,716.417,539.355Z" transform="translate(-335.67 -256.149)" fill="#47976a"/>
      <path id="Path_16" data-name="Path 16" d="M749.292,535.5H91v16.819a27.655,27.655,0,0,0,27.651,27.651H749.292A22.2,22.2,0,0,0,771.5,557.762h0A22.139,22.139,0,0,0,749.292,535.5Z" transform="translate(-54.368 -270.637)" fill="#47976a"/>
      <path id="Path_17" data-name="Path 17" d="M274.853,563.51a29.642,29.642,0,0,0-21.446-37.721,14.125,14.125,0,0,0,.163-2.177,14.821,14.821,0,0,0-14.805-14.805,14.6,14.6,0,0,0-9.308,3.32,48.055,48.055,0,0,0-78.218,51.383Z" transform="translate(-80.479 -253.959)" fill="#5ebf86"/>
      <g id="Group_23" data-name="Group 23" transform="translate(598.635 116.211)">
        <line id="Line_9" data-name="Line 9" y1="183.869" transform="translate(20.248)" fill="none" stroke="#844b2a" stroke-linecap="round" stroke-miterlimit="10" stroke-width="20"/>
        <line id="Line_10" data-name="Line 10" x1="15.35" y2="14.424" transform="translate(20.248 8.491)" fill="none" stroke="#844b2a" stroke-linecap="round" stroke-miterlimit="10" stroke-width="20"/>
        <line id="Line_11" data-name="Line 11" x2="20.248" y2="20.466" transform="translate(0 23.405)" fill="none" stroke="#844b2a" stroke-linecap="round" stroke-miterlimit="10" stroke-width="20"/>
      </g>
      <g id="Group_26" data-name="Group 26" transform="translate(458.475 217.997)">
        <g id="Group_25" data-name="Group 25">
          <g id="Group_24" data-name="Group 24">
            <path id="Path_18" data-name="Path 18" d="M989.722,539.81V467.743c-5.77-10.941-16.71-18.343-29.284-18.343-18.506,0-33.584,16.057-33.638,35.925-24.875,2.449-44.688,23.786-46.756,50.567h-.218A26.825,26.825,0,0,0,866,539.756H989.722Z" transform="translate(-866 -449.4)" fill="#47976a"/>
          </g>
          <path id="Path_19" data-name="Path 19" d="M1109.793,488.865a33.939,33.939,0,0,0-33.965-33.965h-1.2c-13.608,0-25.746,6.749-33.693,17.309-4.082-8.219-12.084-13.771-21.283-13.771-13.281,0-24.059,11.648-24.113,26.073-17.854,1.8-32.06,17.255-33.53,36.687h-.163c-10.941,0-19.868,9.417-20.249,21.174h114.741a53.557,53.557,0,0,0,53.451-53.506Z" transform="translate(-900.45 -451.906)" fill="#5ebf86"/>
          <path id="Path_20" data-name="Path 20" d="M1124.775,517.9c-18.507-3.81-33.2,9.8-37.013,27.216a36.2,36.2,0,0,0-.762,11.1h35.544a53.441,53.441,0,0,0,53.452-53.452h0a33.91,33.91,0,0,0-4.627-17.091C1150.412,483.447,1126.19,495.422,1124.775,517.9Z" transform="translate(-966.652 -465.811)" fill="#53aa78"/>
          <path id="Path_21" data-name="Path 21" d="M1262.559,538.8a22.076,22.076,0,0,0-21.01-22.045A24.669,24.669,0,0,0,1217.272,494h-.326c-19.7,0-36.251,15.132-40.66,35.435-11.1.109-20.085,10.07-20.085,22.371a23.868,23.868,0,0,0,1.851,9.308l83.606-.054v-.218A22.058,22.058,0,0,0,1262.559,538.8Z" transform="translate(-998.24 -469.724)" fill="#5ebf86"/>
        </g>
      </g>
      <g id="Group_28" data-name="Group 28" transform="translate(374.977 126.063)">
        <path id="Path_22" data-name="Path 22" d="M712.6,336.238a55.738,55.738,0,1,1,55.738,55.683,55.115,55.115,0,0,1-15.676-2.232,8.651,8.651,0,0,1-5.77,2.232,8.553,8.553,0,0,1-8.056-5.661,12.923,12.923,0,0,1-4.626.816,13.5,13.5,0,0,1-13.5-13.5,13.666,13.666,0,0,1,1.47-6.151A55.448,55.448,0,0,1,712.6,336.238Z" transform="translate(-712.6 -280.5)" fill="#5ebf86"/>
        <g id="Group_27" data-name="Group 27" transform="translate(35.435 55.738)">
          <line id="Line_12" data-name="Line 12" y1="122.906" transform="translate(20.303)" fill="none" stroke="#844b2a" stroke-linecap="round" stroke-miterlimit="10" stroke-width="20"/>
          <line id="Line_13" data-name="Line 13" x1="15.295" y2="14.424" transform="translate(20.303 8.491)" fill="none" stroke="#844b2a" stroke-linecap="round" stroke-miterlimit="10" stroke-width="20"/>
          <line id="Line_14" data-name="Line 14" x2="20.303" y2="20.412" transform="translate(0 23.405)" fill="none" stroke="#844b2a" stroke-linecap="round" stroke-miterlimit="10" stroke-width="20"/>
        </g>
      </g>
      <g id="Group_37" data-name="Group 37" transform="translate(211.357 231.551)">
        <rect id="Rectangle_3" data-name="Rectangle 3" width="3.865" height="74.734" transform="translate(18.942 2.123)" fill="#fff"/>
        <rect id="Rectangle_4" data-name="Rectangle 4" width="3.865" height="74.734" transform="translate(147.019 2.123)" fill="#fff"/>
        <rect id="Rectangle_5" data-name="Rectangle 5" width="3.865" height="27.107" transform="translate(153.551 50.73)" fill="#fff"/>
        <rect id="Rectangle_6" data-name="Rectangle 6" width="3.865" height="27.107" transform="translate(11.594 50.73)" fill="#fff"/>
        <g id="Group_30" data-name="Group 30" transform="translate(7.022)">
          <rect id="Rectangle_7" data-name="Rectangle 7" width="154.204" height="10.288" fill="#844b2a"/>
          <circle id="Ellipse_2" data-name="Ellipse 2" cx="1.252" cy="1.252" r="1.252" transform="translate(12.574 3.375)" fill="#fff"/>
          <circle id="Ellipse_3" data-name="Ellipse 3" cx="1.252" cy="1.252" r="1.252" transform="translate(140.65 3.375)" fill="#fff"/>
        </g>
        <g id="Group_31" data-name="Group 31" transform="translate(7.022 14.043)">
          <rect id="Rectangle_8" data-name="Rectangle 8" width="154.204" height="10.288" fill="#844b2a"/>
          <circle id="Ellipse_4" data-name="Ellipse 4" cx="1.252" cy="1.252" r="1.252" transform="translate(12.574 3.429)" fill="#fff"/>
          <circle id="Ellipse_5" data-name="Ellipse 5" cx="1.252" cy="1.252" r="1.252" transform="translate(140.65 3.429)" fill="#fff"/>
        </g>
        <g id="Group_32" data-name="Group 32" transform="translate(7.022 28.141)">
          <rect id="Rectangle_9" data-name="Rectangle 9" width="154.204" height="10.288" fill="#844b2a"/>
          <circle id="Ellipse_6" data-name="Ellipse 6" cx="1.252" cy="1.252" r="1.252" transform="translate(12.574 3.375)" fill="#fff"/>
          <circle id="Ellipse_7" data-name="Ellipse 7" cx="1.252" cy="1.252" r="1.252" transform="translate(140.65 3.375)" fill="#fff"/>
        </g>
        <g id="Group_35" data-name="Group 35" transform="translate(4.082 42.075)">
          <g id="Group_34" data-name="Group 34">
            <g id="Group_33" data-name="Group 33">
              <path id="Path_23" data-name="Path 23" d="M579.038,555.247H419.5l2.939-3.647h154.2Z" transform="translate(-419.5 -551.6)" fill="#844b2a"/>
            </g>
          </g>
        </g>
        <g id="Group_36" data-name="Group 36" transform="translate(0 45.722)">
          <path id="Path_24" data-name="Path 24" d="M578.941,563.308H412l4.082-5.008H575.62Z" transform="translate(-412 -558.3)" fill="#844b2a"/>
          <rect id="Rectangle_10" data-name="Rectangle 10" width="166.995" height="1.089" transform="translate(0 5.008)" fill="#633619"/>
        </g>
      </g>
      <path id="apa1" d="M727.473,668.217H114.359A24.066,24.066,0,0,1,90.3,644.159h0A24.066,24.066,0,0,1,114.359,620.1H727.473a24.066,24.066,0,0,1,24.059,24.059h0A24.066,24.066,0,0,1,727.473,668.217Z" transform="translate(-56.049 -312.189)" fill="#00c2f3"/>
      <path id="apa2" d="M723.066,724.875h0c0-8.981,8-16.275,17.8-16.275H325.5c9.852,0,17.8,7.294,17.8,16.275h0c0,8.981-8,16.275-17.8,16.275H740.92C731.068,741.15,723.066,733.856,723.066,724.875Z" transform="translate(-165.226 -352.517)" fill="#00c2f3"/>
      <path id="apa3" d="M768.435,793.983H234.191A12.777,12.777,0,0,1,221.4,781.191h0A12.777,12.777,0,0,1,234.191,768.4H768.435a12.777,12.777,0,0,1,12.791,12.791h0A12.811,12.811,0,0,1,768.435,793.983Z" transform="translate(-115.789 -379.767)" fill="#00c2f3"/>
      <path id="apa4" d="M725.385,833.09h0c0-9.743,6.586-17.69,14.751-17.69H423.4c8.165,0,14.751,7.893,14.751,17.69h0c0,9.743-6.586,17.69-14.751,17.69H740.136C731.971,850.78,725.385,842.833,725.385,833.09Z" transform="translate(-207.838 -401.184)" fill="#00c2f3"/>
      <path id="apa5" d="M796.229,911.435H279.567A15.564,15.564,0,0,1,264,895.867h0A15.564,15.564,0,0,1,279.567,880.3H796.229A15.564,15.564,0,0,1,811.8,895.867h0A15.564,15.564,0,0,1,796.229,911.435Z" transform="translate(-135.202 -430.758)" fill="#00c2f3"/>
      <line id="linie1" x2="59.058" transform="translate(130.853 323.431)" fill="none" stroke="#fff" stroke-miterlimit="10" stroke-width="4"/>
      <line id="linie2" x2="119.041" transform="translate(115.122 340.685)" fill="none" stroke="#fff" stroke-miterlimit="10" stroke-width="4"/>
      <line id="linie3" x2="31.189" transform="translate(222.951 327.241)" fill="none" stroke="#fff" stroke-miterlimit="10" stroke-width="4"/>
      <line id="linie4" x2="56.282" transform="translate(238.572 353.096)" fill="none" stroke="#fff" stroke-miterlimit="10" stroke-width="4"/>
      <line id="linie5" x2="29.121" transform="translate(358.376 327.241)" fill="none" stroke="#fff" stroke-miterlimit="10" stroke-width="4"/>
      <line id="linie6" x2="77.456" transform="translate(230.299 379.93)" fill="none" stroke="#fff" stroke-miterlimit="10" stroke-width="4"/>
      <line id="linie7" x2="31.244" transform="translate(347.054 379.93)" fill="none" stroke="#fff" stroke-miterlimit="10" stroke-width="4"/>
      <line id="linie8" x2="115.612" transform="translate(404.697 346.401)" fill="none" stroke="#fff" stroke-miterlimit="10" stroke-width="4"/>
      <line id="linie9" x2="99.936" transform="translate(534.298 327.241)" fill="none" stroke="#fff" stroke-miterlimit="10" stroke-width="4"/>
      <line id="linie10" x2="34.237" transform="translate(608.76 340.685)" fill="none" stroke="#fff" stroke-miterlimit="10" stroke-width="4"/>
      <line id="linie11" x2="23.841" transform="translate(486.888 327.241)" fill="none" stroke="#fff" stroke-miterlimit="10" stroke-width="4"/>
      <line id="linie12" x2="52.2" transform="translate(482.098 364.581)" fill="none" stroke="#fff" stroke-miterlimit="10" stroke-width="4"/>
      <line id="linie13" x2="72.992" transform="translate(285.383 404.424)" fill="none" stroke="#fff" stroke-miterlimit="10" stroke-width="4"/>
      <line id="linie14" x2="34.673" transform="translate(452.215 411.555)" fill="none" stroke="#fff" stroke-miterlimit="10" stroke-width="4"/>
      <line id="linie15" x2="61.562" transform="translate(420.536 391.633)" fill="none" stroke="#fff" stroke-miterlimit="10" stroke-width="4"/>
      <line id="linie16" x2="26.835" transform="translate(530.923 404.424)" fill="none" stroke="#fff" stroke-miterlimit="10" stroke-width="4"/>
      <line id="linie17" x2="99.555" transform="translate(297.304 441.22)" fill="none" stroke="#fff" stroke-miterlimit="10" stroke-width="4"/>
      <line id="linie18" x2="41.477" transform="translate(396.859 426.85)" fill="none" stroke="#fff" stroke-miterlimit="10" stroke-width="4"/>
      <line id="linie19" x2="106.032" transform="translate(404.697 462.339)" fill="none" stroke="#fff" stroke-miterlimit="10" stroke-width="4"/>
      <line id="linie20" x2="30.863" transform="translate(477.308 441.22)" fill="none" stroke="#fff" stroke-miterlimit="10" stroke-width="4"/>
      <line id="linie21" x2="34.346" transform="translate(544.367 472.845)" fill="none" stroke="#fff" stroke-miterlimit="10" stroke-width="4"/>
      <line id="linie22" x2="31.244" transform="translate(254.14 426.85)" fill="none" stroke="#fff" stroke-miterlimit="10" stroke-width="4"/>
      <line id="linie23" x2="44.144" transform="translate(216.691 468.109)" fill="none" stroke="#fff" stroke-miterlimit="10" stroke-width="4"/>
      <line id="linie24" x2="18.561" transform="translate(285.383 457.495)" fill="none" stroke="#fff" stroke-miterlimit="10" stroke-width="4"/>
      <path id="nor1" d="M406.4,108.177a29.559,29.559,0,1,0-53.452-23.133,22.358,22.358,0,0,0-5.77-.762A21.883,21.883,0,0,0,325.3,106.163c0,.708.054,1.361.109,2.014" transform="translate(-161.135 -55.052)" fill="#fff"/>
      <path id="nor2" d="M772.447,165.764a18.3,18.3,0,0,0-28.413-15.241,26.4,26.4,0,0,0-51.819,6.423,15.172,15.172,0,0,0-10.015,8.818Z" transform="translate(-323.77 -86.403)" fill="#fff"/>
      <path id="nor3" d="M937.039,76.5v-.544a7.181,7.181,0,0,0-4.9-6.8,14.646,14.646,0,0,0,.163-2.177,18.057,18.057,0,0,0-36.088-.98h0A10.024,10.024,0,0,0,886.2,76.007v.544h50.839Z" transform="translate(-416.73 -48.9)" fill="#fff"/>
    </g>
  </g>
</svg>
